<svg xmlns="http://www.w3.org/2000/svg" viewBox="0 0 558.27 558.27"><defs><style>.cls-1{fill:#d32e11;}.cls-2{fill:#fff;}</style></defs><title>Ресурс 4</title><g id="Слой_2" data-name="Слой 2"><g id="Слой_1-2" data-name="Слой 1"><circle class="cls-1" cx="279.14" cy="279.14" r="279.14"/><path class="cls-2" d="M299.76,283.89q0,64.64,0,129.25c0,10.85-2.87,13.81-13.48,13.82q-33.54,0-67.07,0c-9.45,0-12.68-3.15-12.68-12.46q0-130.65,0-261.29c0-9.27,3.23-12.36,12.76-12.37q33.87-.06,67.76,0c9.72,0,12.71,3.11,12.71,13.12Q299.79,218.92,299.76,283.89Zm-15-45.8c0-20.48,0-41,0-61.44,0-8.18-2.76-11-10.81-11q-21.28-.09-42.59,0c-8.55,0-11.12,2.63-11.13,11.37q-.06,60.75,0,121.48c0,8.69,2.61,11.31,11.19,11.36q21,.11,41.89,0c9-.05,11.44-2.54,11.46-11.76C284.75,278.11,284.71,258.1,284.72,238.09ZM275.09,369.4a20.5,20.5,0,1,0-21.17,20.2A20.2,20.2,0,0,0,275.09,369.4Z"/><path class="cls-2" d="M190.78,284.61q0,64.27,0,128.54c0,10.89-2.85,13.79-13.52,13.8q-33.52,0-67.06,0c-9.42,0-12.69-3.22-12.69-12.51q0-130.65,0-261.29c0-9.21,3.27-12.3,12.82-12.31q33.18-.06,66.37,0c11.39,0,14.07,2.62,14.08,13.84Q190.8,219.64,190.78,284.61Zm-78.2-47.3c0,20.25,0,40.5,0,60.75,0,9.55,2.37,11.82,12.06,11.84q20.25,0,40.5,0c9.6,0,12-2.39,12-12q.06-60.39,0-120.8c0-9-2.54-11.42-11.78-11.45q-20.59-.06-41.2,0c-9.18,0-11.57,2.41-11.59,11.57Q112.53,207.28,112.58,237.31ZM147.19,348.6a20.51,20.51,0,1,0-1.48,41,20.51,20.51,0,1,0,1.48-41Z"/><path class="cls-2" d="M251.79,192.19c-5.11,0-10.21,0-15.32,0-4.42.05-6.3-2.16-6.19-6.46.1-4.05,2.12-5.83,6.12-5.81,10.67,0,21.34,0,32,0,3.86,0,6.12,1.57,6.19,5.75s-1.64,6.57-6.12,6.52C262.92,192.15,257.35,192.2,251.79,192.19Z"/><path class="cls-2" d="M251.85,211.75c-5.11,0-10.22-.08-15.32,0-4.43.08-6.33-2.05-6.28-6.38.05-4.09,2.09-5.88,6.06-5.88,10.68,0,21.36,0,32,0,4.37,0,6.34,2,6.28,6.4-.06,4.61-2.63,6-6.76,5.89C262.54,211.68,257.19,211.75,251.85,211.75Z"/><path class="cls-2" d="M433.39,270q12.44,63.42,24.89,126.83c2.09,10.64-.16,14.1-10.57,16.16q-32.9,6.5-65.82,12.91c-9.27,1.8-13-.66-14.83-9.79Q341.85,287.9,316.72,159.7c-1.79-9.1.78-12.75,10.13-14.6q33.24-6.58,66.5-13c9.54-1.86,13.06.6,15,10.42Q420.89,206.22,433.39,270ZM409.8,227.93c-3.95-20.1-7.85-40.2-11.86-60.28-1.6-8-4.82-10.21-12.72-8.7q-20.93,4-41.79,8.22c-8.39,1.69-10.41,4.72-8.73,13.31q11.64,59.61,23.39,119.2c1.68,8.52,4.74,10.59,13.17,9q20.57-3.93,41.1-8.08c8.82-1.78,10.74-4.7,9-13.74C417.54,267.2,413.65,247.57,409.8,227.93Zm15.85,130.71a20.18,20.18,0,0,0-23.44-16.57c-11.54,2-19,12.54-16.92,23.83a20.5,20.5,0,1,0,40.36-7.26Z"/><path class="cls-2" d="M368.64,189.24c-5,1-10,1.92-15,3-4.33.9-6.6-.91-7.32-5.15-.69-4,1-6.13,4.88-6.88,10.48-2,20.95-4.09,31.42-6.16,3.79-.74,6.31.36,7.19,4.45s-.34,6.76-4.75,7.58C379.57,187.05,374.11,188.17,368.64,189.24Z"/><path class="cls-2" d="M372.48,208.41c-5,1-10.05,1.9-15,3-4.33.93-6.6-.79-7.38-5-.75-4,.92-6.18,4.8-6.94q15.74-3.08,31.44-6.21c4.28-.86,6.61.78,7.4,5.08.83,4.54-1.43,6.36-5.5,7.08C383,206.29,377.72,207.39,372.48,208.41Z"/><path class="cls-2" d="M145.53,180c5.1,0,10.21,0,15.31,0,3.93,0,6.08,1.68,6.16,5.78.08,4.25-1.72,6.5-6.18,6.47-10.67-.06-21.34,0-32,0-4.4,0-6.28-2.18-6.16-6.49.11-4.12,2.27-5.79,6.18-5.76C134.4,180,140,180,145.53,180Z"/><path class="cls-2" d="M144.87,199.52c5.34,0,10.69,0,16,0,4,0,6,1.74,6.14,5.81.1,4.32-1.84,6.47-6.24,6.45q-16-.08-32,0c-4,0-6-1.74-6.13-5.82-.12-4.36,1.84-6.46,6.22-6.42C134.19,199.56,139.53,199.52,144.87,199.52Z"/></g></g></svg>